Coordinates
version=1
nRows=10
nColumns=22
inDegrees=yes

Units are S.I. units (second, meters, Newtons, ...)
If the header above contains a line with 'inDegrees', this indicates whether rotational values are in degrees (yes) or radians (no).

endheader
time	pelvis_tilt	pelvis_list	pelvis_rotation	pelvis_tx	pelvis_ty	pelvis_tz	hip_flexion_r	hip_adduction_r	hip_rotation_r	knee_angle_r	ankle_angle_r	subtalar_angle_r	hip_flexion_l	hip_adduction_l	hip_rotation_l	knee_angle_l	ankle_angle_l	subtalar_angle_l	lumbar_extension	lumbar_bending	lumbar_rotation
      0.01000000	    -12.27092000	     -2.52986233	     -0.27025227	     -1.13053191	      0.97789686	      0.44060727	     18.91719321	      2.93197074	     -5.14632050	    -17.65357481	     16.31581172	     -7.98019566	     20.75688943	     -1.78430295	     -5.73723662	    -18.99993406	     18.09628490	     -0.88825707	      5.60065926	      3.08225118	      2.97969174
      0.02000000	    -12.27077439	     -2.54536235	     -0.26299312	     -1.13053808	      0.97790161	      0.44061340	     18.91256691	      2.94617198	     -5.16573871	    -17.64294027	     16.27608559	     -7.96830537	     20.76084581	     -1.79869952	     -5.72183513	    -19.00594497	     18.12469682	     -0.90327439	      5.60229448	      3.09878336	      2.98114333
      0.03000000	    -12.27018859	     -2.54480286	     -0.26262593	     -1.13054852	      0.97790541	      0.44062824	     18.91244381	      2.94654772	     -5.16568121	    -17.64303885	     16.27621906	     -7.96828881	     20.76092030	     -1.79880782	     -5.72181571	    -19.00607327	     18.12454948	     -0.90338027	      5.60274436	      3.09909441	      2.98099430
      0.04000000	    -12.26943768	     -2.54427536	     -0.26189842	     -1.13055989	      0.97790952	      0.44064408	     18.91243187	      2.94689629	     -5.16556960	    -17.64315465	     16.27638773	     -7.96828996	     20.76079188	     -1.79907292	     -5.72180336	    -19.00637158	     18.12432876	     -0.90351426	      5.60336867	      3.09926726	      2.98095679
      0.05000000	    -12.26752680	     -2.54512240	     -0.25698794	     -1.13056189	      0.97791328	      0.44065894	     18.91050877	      2.94826511	     -5.16453453	    -17.64515616	     16.27766736	     -7.96847378	     20.76027103	     -1.80028192	     -5.72180972	    -19.00881219	     18.12239204	     -0.90456777	      5.60609469	      3.09802101	      2.98154256
      0.06000000	    -12.26690779	     -2.54453472	     -0.25654309	     -1.13057538	      0.97791721	      0.44067528	     18.91073159	      2.94856404	     -5.16454536	    -17.64502945	     16.27782168	     -7.96850677	     20.76041860	     -1.80036996	     -5.72177580	    -19.00895681	     18.12219731	     -0.90468584	      5.60617174	      3.09821839	      2.98165180
      0.07000000	    -12.26630225	     -2.54403041	     -0.25578812	     -1.13058774	      0.97792141	      0.44069107	     18.91088544	      2.94900462	     -5.16450782	    -17.64502495	     16.27798767	     -7.96856419	     20.76061062	     -1.80038262	     -5.72176265	    -19.00915835	     18.12193608	     -0.90483861	      5.60622853	      3.09828783	      2.98193152
      0.08000000	    -12.26508685	     -2.54516434	     -0.24876827	     -1.13060406	      0.97792407	      0.44070422	     18.91048864	      2.95025057	     -5.16349520	    -17.64634196	     16.27954704	     -7.96943229	     20.76276065	     -1.80105958	     -5.72129263	    -19.01167264	     18.11873405	     -0.90665775	      5.60414469	      3.09611944	      2.98550262
      0.09000000	    -12.26476723	     -2.54454195	     -0.24863342	     -1.13061232	      0.97792853	      0.44071850	     18.91064049	      2.95063276	     -5.16357692	    -17.64626577	     16.27964389	     -7.96950617	     20.76293915	     -1.80087460	     -5.72116488	    -19.01188318	     18.11850490	     -0.90680111	      5.60402431	      3.09638206	      2.98560747
      0.10000000	    -12.26464038	     -2.54399934	     -0.24820339	     -1.13061897	      0.97793250	      0.44073183	     18.91085325	      2.95102781	     -5.16361405	    -17.64619678	     16.27972875	     -7.96960819	     20.76329852	     -1.80065804	     -5.72102369	    -19.01197193	     18.11820152	     -0.90698452	      5.60354173	      3.09662592	      2.98575447
